<svg width="88" height="20" viewBox="0 0 88 20" fill="none" xmlns="http://www.w3.org/2000/svg">
<mask id="path-1-outside-1_136_96" maskUnits="userSpaceOnUse" x="0" y="0" width="88" height="20" fill="black">
<rect fill="white" width="88" height="20"/>
<path d="M2.01136 14V2.36364H4.47159V7.16477H9.46591V2.36364H11.9205V14H9.46591V9.19318H4.47159V14H2.01136ZM17.8466 14.1705C16.964 14.1705 16.2008 13.983 15.5568 13.608C14.9167 13.2292 14.4223 12.7027 14.0739 12.0284C13.7254 11.3504 13.5511 10.5644 13.5511 9.67045C13.5511 8.76894 13.7254 7.98106 14.0739 7.30682C14.4223 6.62879 14.9167 6.10227 15.5568 5.72727C16.2008 5.34848 16.964 5.15909 17.8466 5.15909C18.7292 5.15909 19.4905 5.34848 20.1307 5.72727C20.7746 6.10227 21.2708 6.62879 21.6193 7.30682C21.9678 7.98106 22.142 8.76894 22.142 9.67045C22.142 10.5644 21.9678 11.3504 21.6193 12.0284C21.2708 12.7027 20.7746 13.2292 20.1307 13.608C19.4905 13.983 18.7292 14.1705 17.8466 14.1705ZM17.858 12.2955C18.2595 12.2955 18.5947 12.1818 18.8636 11.9545C19.1326 11.7235 19.3352 11.4091 19.4716 11.0114C19.6117 10.6136 19.6818 10.161 19.6818 9.65341C19.6818 9.14583 19.6117 8.69318 19.4716 8.29545C19.3352 7.89773 19.1326 7.58333 18.8636 7.35227C18.5947 7.12121 18.2595 7.00568 17.858 7.00568C17.4527 7.00568 17.1117 7.12121 16.8352 7.35227C16.5625 7.58333 16.3561 7.89773 16.2159 8.29545C16.0795 8.69318 16.0114 9.14583 16.0114 9.65341C16.0114 10.161 16.0795 10.6136 16.2159 11.0114C16.3561 11.4091 16.5625 11.7235 16.8352 11.9545C17.1117 12.1818 17.4527 12.2955 17.858 12.2955ZM23.7159 17.2727V5.27273H26.1023V6.73864H26.2102C26.3163 6.50379 26.4697 6.26515 26.6705 6.02273C26.875 5.77652 27.1402 5.57197 27.4659 5.40909C27.7955 5.24242 28.2045 5.15909 28.6932 5.15909C29.3295 5.15909 29.9167 5.32576 30.4545 5.65909C30.9924 5.98864 31.4223 6.48674 31.7443 7.15341C32.0663 7.81629 32.2273 8.64773 32.2273 9.64773C32.2273 10.6212 32.0701 11.4432 31.7557 12.1136C31.4451 12.7803 31.0208 13.286 30.483 13.6307C29.9489 13.9716 29.3504 14.142 28.6875 14.142C28.2178 14.142 27.8182 14.0644 27.4886 13.9091C27.1629 13.7538 26.8958 13.5587 26.6875 13.3239C26.4792 13.0852 26.3201 12.8447 26.2102 12.6023H26.1364V17.2727H23.7159ZM26.0852 9.63636C26.0852 10.1553 26.1572 10.608 26.3011 10.9943C26.4451 11.3807 26.6534 11.6818 26.9261 11.8977C27.1989 12.1098 27.5303 12.2159 27.9205 12.2159C28.3144 12.2159 28.6477 12.108 28.9205 11.892C29.1932 11.6723 29.3996 11.3693 29.5398 10.983C29.6837 10.5928 29.7557 10.1439 29.7557 9.63636C29.7557 9.13258 29.6856 8.68939 29.5455 8.30682C29.4053 7.92424 29.1989 7.625 28.9261 7.40909C28.6534 7.19318 28.3182 7.08523 27.9205 7.08523C27.5265 7.08523 27.1932 7.18939 26.9205 7.39773C26.6515 7.60606 26.4451 7.90151 26.3011 8.28409C26.1572 8.66667 26.0852 9.11742 26.0852 9.63636ZM44.5795 8.18182C44.5795 9.45076 44.339 10.5303 43.858 11.4205C43.3807 12.3106 42.7292 12.9905 41.9034 13.4602C41.0814 13.9261 40.1572 14.1591 39.1307 14.1591C38.0966 14.1591 37.1686 13.9242 36.3466 13.4545C35.5246 12.9848 34.875 12.3049 34.3977 11.4148C33.9205 10.5246 33.6818 9.44697 33.6818 8.18182C33.6818 6.91288 33.9205 5.83333 34.3977 4.94318C34.875 4.05303 35.5246 3.375 36.3466 2.90909C37.1686 2.43939 38.0966 2.20455 39.1307 2.20455C40.1572 2.20455 41.0814 2.43939 41.9034 2.90909C42.7292 3.375 43.3807 4.05303 43.858 4.94318C44.339 5.83333 44.5795 6.91288 44.5795 8.18182ZM42.0852 8.18182C42.0852 7.35985 41.9621 6.66667 41.7159 6.10227C41.4735 5.53788 41.1307 5.10985 40.6875 4.81818C40.2443 4.52652 39.7254 4.38068 39.1307 4.38068C38.536 4.38068 38.017 4.52652 37.5739 4.81818C37.1307 5.10985 36.786 5.53788 36.5398 6.10227C36.2973 6.66667 36.1761 7.35985 36.1761 8.18182C36.1761 9.00379 36.2973 9.69697 36.5398 10.2614C36.786 10.8258 37.1307 11.2538 37.5739 11.5455C38.017 11.8371 38.536 11.983 39.1307 11.983C39.7254 11.983 40.2443 11.8371 40.6875 11.5455C41.1307 11.2538 41.4735 10.8258 41.7159 10.2614C41.9621 9.69697 42.0852 9.00379 42.0852 8.18182ZM48.777 8.95455V14H46.3565V5.27273H48.6634V6.8125H48.7656C48.9588 6.30492 49.2827 5.90341 49.7372 5.60795C50.1918 5.30871 50.7429 5.15909 51.3906 5.15909C51.9967 5.15909 52.5251 5.29167 52.9759 5.55682C53.4266 5.82197 53.777 6.20076 54.027 6.69318C54.277 7.18182 54.402 7.76515 54.402 8.44318V14H51.9815V8.875C51.9853 8.34091 51.849 7.92424 51.5724 7.625C51.2959 7.32197 50.9152 7.17045 50.4304 7.17045C50.1046 7.17045 49.8168 7.24053 49.5668 7.38068C49.3205 7.52083 49.1274 7.72538 48.9872 7.99432C48.8509 8.25947 48.7808 8.57955 48.777 8.95455ZM61.0142 2.36364H63.446V10.4773C63.446 11.2273 63.2775 11.8788 62.9403 12.4318C62.607 12.9848 62.143 13.411 61.5483 13.7102C60.9536 14.0095 60.2623 14.1591 59.4744 14.1591C58.7737 14.1591 58.1373 14.036 57.5653 13.7898C56.9972 13.5398 56.5464 13.161 56.2131 12.6534C55.8797 12.142 55.715 11.5 55.7188 10.7273H58.1676C58.1752 11.0341 58.2377 11.2973 58.3551 11.517C58.4763 11.733 58.6411 11.8996 58.8494 12.017C59.0616 12.1307 59.3116 12.1875 59.5994 12.1875C59.9025 12.1875 60.1581 12.1231 60.3665 11.9943C60.5786 11.8617 60.7396 11.6686 60.8494 11.4148C60.9593 11.161 61.0142 10.8485 61.0142 10.4773V2.36364ZM65.4801 14V2.36364H67.9403V7.49432H68.0938L72.2812 2.36364H75.2301L70.9119 7.57386L75.2812 14H72.3381L69.1506 9.21591L67.9403 10.6932V14H65.4801ZM76.0682 4.39205V2.36364H85.625V4.39205H82.0625V14H79.6307V4.39205H76.0682Z"/>
</mask>
<path d="M2.01136 14H0.0113636V16H2.01136V14ZM2.01136 2.36364V0.363636H0.0113636V2.36364H2.01136ZM4.47159 2.36364H6.47159V0.363636H4.47159V2.36364ZM4.47159 7.16477H2.47159V9.16477H4.47159V7.16477ZM9.46591 7.16477V9.16477H11.4659V7.16477H9.46591ZM9.46591 2.36364V0.363636H7.46591V2.36364H9.46591ZM11.9205 2.36364H13.9205V0.363636H11.9205V2.36364ZM11.9205 14V16H13.9205V14H11.9205ZM9.46591 14H7.46591V16H9.46591V14ZM9.46591 9.19318H11.4659V7.19318H9.46591V9.19318ZM4.47159 9.19318V7.19318H2.47159V9.19318H4.47159ZM4.47159 14V16H6.47159V14H4.47159ZM2.01136 14H4.01136V2.36364H2.01136H0.0113636V14H2.01136ZM2.01136 2.36364V4.36364H4.47159V2.36364V0.363636H2.01136V2.36364ZM4.47159 2.36364H2.47159V7.16477H4.47159H6.47159V2.36364H4.47159ZM4.47159 7.16477V9.16477H9.46591V7.16477V5.16477H4.47159V7.16477ZM9.46591 7.16477H11.4659V2.36364H9.46591H7.46591V7.16477H9.46591ZM9.46591 2.36364V4.36364H11.9205V2.36364V0.363636H9.46591V2.36364ZM11.9205 2.36364H9.92045V14H11.9205H13.9205V2.36364H11.9205ZM11.9205 14V12H9.46591V14V16H11.9205V14ZM9.46591 14H11.4659V9.19318H9.46591H7.46591V14H9.46591ZM9.46591 9.19318V7.19318H4.47159V9.19318V11.1932H9.46591V9.19318ZM4.47159 9.19318H2.47159V14H4.47159H6.47159V9.19318H4.47159ZM4.47159 14V12H2.01136V14V16H4.47159V14ZM15.5568 13.608L14.5383 15.3292L14.5503 15.3362L15.5568 13.608ZM14.0739 12.0284L12.2951 12.9427L12.2971 12.9467L14.0739 12.0284ZM14.0739 7.30682L15.8506 8.22512L15.8527 8.22107L14.0739 7.30682ZM15.5568 5.72727L16.5677 7.45298L16.5709 7.45114L15.5568 5.72727ZM20.1307 5.72727L19.1122 7.44856L19.1242 7.45557L20.1307 5.72727ZM21.6193 7.30682L19.8405 8.22107L19.8426 8.22512L21.6193 7.30682ZM21.6193 12.0284L23.396 12.9467L23.3981 12.9427L21.6193 12.0284ZM20.1307 13.608L21.1416 15.3337L21.1447 15.3318L20.1307 13.608ZM18.8636 11.9545L20.1546 13.4821L20.1608 13.4769L20.167 13.4715L18.8636 11.9545ZM19.4716 11.0114L17.5853 10.3467L17.5825 10.3547L17.5797 10.3627L19.4716 11.0114ZM19.4716 8.29545L17.5797 8.9441L17.5825 8.95214L17.5853 8.96016L19.4716 8.29545ZM16.8352 7.35227L15.5528 5.81752L15.5424 5.8263L16.8352 7.35227ZM16.2159 8.29545L14.3296 7.63075L14.3268 7.63877L14.324 7.64681L16.2159 8.29545ZM16.2159 11.0114L14.324 11.66L14.3268 11.668L14.3296 11.6761L16.2159 11.0114ZM16.8352 11.9545L15.5424 13.4805L15.5538 13.4902L15.5653 13.4996L16.8352 11.9545ZM17.8466 14.1705V12.1705C17.252 12.1705 16.8496 12.0464 16.5633 11.8797L15.5568 13.608L14.5503 15.3362C15.5519 15.9195 16.676 16.1705 17.8466 16.1705V14.1705ZM15.5568 13.608L16.5753 11.8867C16.2651 11.7032 16.0304 11.458 15.8506 11.1101L14.0739 12.0284L12.2971 12.9467C12.8143 13.9473 13.5682 14.7552 14.5383 15.3292L15.5568 13.608ZM14.0739 12.0284L15.8527 11.1142C15.6727 10.764 15.5511 10.3012 15.5511 9.67045H13.5511H11.5511C11.5511 10.8276 11.7781 11.9368 12.2951 12.9427L14.0739 12.0284ZM13.5511 9.67045H15.5511C15.5511 9.02876 15.674 8.5668 15.8506 8.22512L14.0739 7.30682L12.2971 6.38852C11.7768 7.39532 11.5511 8.50912 11.5511 9.67045H13.5511ZM14.0739 7.30682L15.8527 8.22107C16.0325 7.87114 16.2648 7.63041 16.5677 7.45297L15.5568 5.72727L14.5459 4.00157C13.5685 4.57413 12.8122 5.38643 12.2951 6.39257L14.0739 7.30682ZM15.5568 5.72727L16.5709 7.45114C16.8558 7.28355 17.2554 7.15909 17.8466 7.15909V5.15909V3.15909C16.6726 3.15909 15.5457 3.41342 14.5428 4.0034L15.5568 5.72727ZM17.8466 5.15909V7.15909C18.4381 7.15909 18.8336 7.28367 19.1122 7.44852L20.1307 5.72727L21.1492 4.00603C20.1474 3.41329 19.0202 3.15909 17.8466 3.15909V5.15909ZM20.1307 5.72727L19.1242 7.45557C19.4303 7.63385 19.6623 7.87425 19.8405 8.22106L21.6193 7.30682L23.3981 6.39257C22.8794 5.38332 22.1189 4.57069 21.1372 3.99898L20.1307 5.72727ZM21.6193 7.30682L19.8426 8.22512C20.0192 8.5668 20.142 9.02876 20.142 9.67045H22.142H24.142C24.142 8.50912 23.9164 7.39532 23.396 6.38851L21.6193 7.30682ZM22.142 9.67045H20.142C20.142 10.3012 20.0205 10.764 19.8405 11.1142L21.6193 12.0284L23.3981 12.9427C23.9151 11.9368 24.142 10.8276 24.142 9.67045H22.142ZM21.6193 12.0284L19.8426 11.1101C19.6644 11.4549 19.4301 11.6997 19.1166 11.8841L20.1307 13.608L21.1447 15.3318C22.1192 14.7586 22.8773 13.9504 23.396 12.9467L21.6193 12.0284ZM20.1307 13.608L19.1198 11.8823C18.8398 12.0462 18.4415 12.1705 17.8466 12.1705V14.1705V16.1705C19.0168 16.1705 20.1412 15.9197 21.1416 15.3337L20.1307 13.608ZM17.858 12.2955V14.2955C18.6617 14.2955 19.4743 14.057 20.1546 13.4821L18.8636 11.9545L17.5727 10.427C17.6307 10.378 17.7 10.3393 17.7684 10.3161C17.8334 10.2941 17.8693 10.2955 17.858 10.2955V12.2955ZM18.8636 11.9545L20.167 13.4715C20.7522 12.9687 21.1333 12.3315 21.3635 11.66L19.4716 11.0114L17.5797 10.3627C17.5576 10.4272 17.54 10.4562 17.5363 10.4619C17.5336 10.4661 17.5408 10.4543 17.5603 10.4375L18.8636 11.9545ZM19.4716 11.0114L21.3579 11.6761C21.5869 11.0263 21.6818 10.3427 21.6818 9.65341H19.6818H17.6818C17.6818 9.97931 17.6366 10.2009 17.5853 10.3467L19.4716 11.0114ZM19.6818 9.65341H21.6818C21.6818 8.96416 21.5869 8.28048 21.3579 7.63075L19.4716 8.29545L17.5853 8.96016C17.6366 9.10589 17.6818 9.32751 17.6818 9.65341H19.6818ZM19.4716 8.29545L21.3635 7.64681C21.1333 6.97536 20.7522 6.33809 20.167 5.83527L18.8636 7.35227L17.5603 8.86928C17.5408 8.85254 17.5336 8.84073 17.5363 8.84492C17.54 8.85062 17.5576 8.87961 17.5797 8.9441L19.4716 8.29545ZM18.8636 7.35227L20.167 5.83527C19.4872 5.25125 18.6702 5.00568 17.858 5.00568V7.00568V9.00568C17.8659 9.00568 17.8267 9.00656 17.7589 8.98319C17.6876 8.95862 17.6175 8.91842 17.5603 8.86928L18.8636 7.35227ZM17.858 7.00568V5.00568C17.046 5.00568 16.234 5.24829 15.5528 5.81756L16.8352 7.35227L18.1177 8.88699C18.0666 8.92962 18.0039 8.96494 17.9402 8.98652C17.8796 9.00704 17.8464 9.00568 17.858 9.00568V7.00568ZM16.8352 7.35227L15.5424 5.8263C14.9538 6.32497 14.5663 6.95897 14.3296 7.63075L16.2159 8.29545L18.1022 8.96015C18.1249 8.89566 18.1431 8.86599 18.1477 8.85912C18.1512 8.85369 18.1453 8.8636 18.1281 8.87824L16.8352 7.35227ZM16.2159 8.29545L14.324 7.64681C14.103 8.29143 14.0114 8.96941 14.0114 9.65341H16.0114H18.0114C18.0114 9.32225 18.0561 9.09493 18.1078 8.9441L16.2159 8.29545ZM16.0114 9.65341H14.0114C14.0114 10.3374 14.103 11.0154 14.324 11.66L16.2159 11.0114L18.1078 10.3627C18.0561 10.2119 18.0114 9.98456 18.0114 9.65341H16.0114ZM16.2159 11.0114L14.3296 11.6761C14.5663 12.3478 14.9538 12.9818 15.5424 13.4805L16.8352 11.9545L18.1281 10.4286C18.1453 10.4432 18.1512 10.4531 18.1477 10.4477C18.1431 10.4408 18.1249 10.4112 18.1022 10.3467L16.2159 11.0114ZM16.8352 11.9545L15.5653 13.4996C16.2468 14.0598 17.0544 14.2955 17.858 14.2955V12.2955V10.2955C17.8431 10.2955 17.873 10.2936 17.9308 10.3129C17.9916 10.3331 18.0535 10.367 18.1052 10.4095L16.8352 11.9545ZM23.7159 17.2727H21.7159V19.2727H23.7159V17.2727ZM23.7159 5.27273V3.27273H21.7159V5.27273H23.7159ZM26.1023 5.27273H28.1023V3.27273H26.1023V5.27273ZM26.1023 6.73864H24.1023V8.73864H26.1023V6.73864ZM26.2102 6.73864V8.73864H27.5015L28.033 7.56181L26.2102 6.73864ZM26.6705 6.02273L25.1321 4.74469L25.1301 4.7471L26.6705 6.02273ZM27.4659 5.40909L28.3603 7.19796L28.3685 7.19382L27.4659 5.40909ZM30.4545 5.65909L29.401 7.35913L29.4097 7.36447L30.4545 5.65909ZM31.7443 7.15341L29.9433 8.02319L29.9453 8.02722L31.7443 7.15341ZM31.7557 12.1136L29.9449 11.2645L29.9428 11.269L31.7557 12.1136ZM30.483 13.6307L31.559 15.3165L31.5621 15.3146L30.483 13.6307ZM27.4886 13.9091L26.6279 15.7144L26.636 15.7183L27.4886 13.9091ZM26.6875 13.3239L25.1809 14.6392L25.1861 14.6452L25.1914 14.6511L26.6875 13.3239ZM26.2102 12.6023L28.0319 11.7768L27.4997 10.6023H26.2102V12.6023ZM26.1364 12.6023V10.6023H24.1364V12.6023H26.1364ZM26.1364 17.2727V19.2727H28.1364V17.2727H26.1364ZM26.9261 11.8977L25.6847 13.4658L25.6915 13.4712L25.6983 13.4764L26.9261 11.8977ZM28.9205 11.892L30.1619 13.4601L30.1685 13.4549L30.1751 13.4496L28.9205 11.892ZM29.5398 10.983L27.6634 10.2907L27.6596 10.3009L29.5398 10.983ZM29.5455 8.30682L31.4234 7.61886L31.4234 7.61885L29.5455 8.30682ZM28.9261 7.40909L30.1675 5.841L30.1675 5.841L28.9261 7.40909ZM26.9205 7.39773L25.7063 5.80835L25.6957 5.81663L26.9205 7.39773ZM26.3011 8.28409L24.4292 7.57981L24.4292 7.57981L26.3011 8.28409ZM23.7159 17.2727H25.7159V5.27273H23.7159H21.7159V17.2727H23.7159ZM23.7159 5.27273V7.27273H26.1023V5.27273V3.27273H23.7159V5.27273ZM26.1023 5.27273H24.1023V6.73864H26.1023H28.1023V5.27273H26.1023ZM26.1023 6.73864V8.73864H26.2102V6.73864V4.73864H26.1023V6.73864ZM26.2102 6.73864L28.033 7.56181C28.0514 7.52096 28.0998 7.43242 28.2108 7.29836L26.6705 6.02273L25.1301 4.7471C24.8396 5.09788 24.5812 5.48662 24.3875 5.91546L26.2102 6.73864ZM26.6705 6.02273L28.2088 7.30077C28.2136 7.29503 28.2482 7.254 28.3603 7.19795L27.4659 5.40909L26.5715 3.62024C26.0321 3.88994 25.5364 4.258 25.1321 4.74469L26.6705 6.02273ZM27.4659 5.40909L28.3685 7.19382C28.3428 7.20685 28.4209 7.15909 28.6932 7.15909V5.15909V3.15909C27.9882 3.15909 27.2481 3.27799 26.5633 3.62436L27.4659 5.40909ZM28.6932 5.15909V7.15909C28.9595 7.15909 29.1814 7.22304 29.401 7.35911L30.4545 5.65909L31.5081 3.95907C30.6519 3.42848 29.6996 3.15909 28.6932 3.15909V5.15909ZM30.4545 5.65909L29.4097 7.36447C29.5673 7.46102 29.7586 7.64074 29.9434 8.02319L31.7443 7.15341L33.5453 6.28363C33.0861 5.33274 32.4175 4.51625 31.4994 3.95372L30.4545 5.65909ZM31.7443 7.15341L29.9453 8.02722C30.0965 8.33859 30.2273 8.84798 30.2273 9.64773H32.2273H34.2273C34.2273 8.44748 34.036 7.29399 33.5433 6.2796L31.7443 7.15341ZM32.2273 9.64773H30.2273C30.2273 10.416 30.1019 10.9296 29.9449 11.2645L31.7557 12.1136L33.5665 12.9628C34.0382 11.9568 34.2273 10.8264 34.2273 9.64773H32.2273ZM31.7557 12.1136L29.9428 11.269C29.7675 11.6452 29.5765 11.8361 29.4038 11.9468L30.483 13.6307L31.5621 15.3146C32.4652 14.7358 33.1226 13.9154 33.5686 12.9583L31.7557 12.1136ZM30.483 13.6307L29.4069 11.9448C29.2095 12.0709 28.9876 12.142 28.6875 12.142V14.142V16.142C29.7132 16.142 30.6883 15.8723 31.559 15.3165L30.483 13.6307ZM28.6875 14.142V12.142C28.4305 12.142 28.3386 12.0987 28.3412 12.0999L27.4886 13.9091L26.636 15.7183C27.2977 16.0301 28.0052 16.142 28.6875 16.142V14.142ZM27.4886 13.9091L28.3493 12.1038C28.2294 12.0466 28.1897 12.0035 28.1836 11.9966L26.6875 13.3239L25.1914 14.6511C25.602 15.114 26.0964 15.461 26.628 15.7144L27.4886 13.9091ZM26.6875 13.3239L28.1941 12.0085C28.0905 11.8899 28.0476 11.8114 28.0319 11.7768L26.2102 12.6023L24.3885 13.4277C24.5925 13.878 24.8678 14.2806 25.1809 14.6392L26.6875 13.3239ZM26.2102 12.6023V10.6023H26.1364V12.6023V14.6023H26.2102V12.6023ZM26.1364 12.6023H24.1364V17.2727H26.1364H28.1364V12.6023H26.1364ZM26.1364 17.2727V15.2727H23.7159V17.2727V19.2727H26.1364V17.2727ZM26.0852 9.63636H24.0852C24.0852 10.3346 24.1814 11.0334 24.427 11.6925L26.3011 10.9943L28.1753 10.2961C28.133 10.1825 28.0852 9.97603 28.0852 9.63636H26.0852ZM26.3011 10.9943L24.427 11.6925C24.6746 12.3572 25.0764 12.9842 25.6847 13.4658L26.9261 11.8977L28.1675 10.3296C28.1799 10.3394 28.1901 10.3491 28.1979 10.3575C28.2056 10.3658 28.2095 10.3712 28.2101 10.3721C28.2113 10.3738 28.1965 10.353 28.1753 10.2961L26.3011 10.9943ZM26.9261 11.8977L25.6983 13.4764C26.367 13.9965 27.146 14.2159 27.9205 14.2159V12.2159V10.2159C27.9075 10.2159 27.9352 10.2144 27.9888 10.2315C28.0451 10.2495 28.1037 10.2799 28.154 10.319L26.9261 11.8977ZM27.9205 12.2159V14.2159C28.7021 14.2159 29.4894 13.9925 30.1619 13.4601L28.9205 11.892L27.679 10.324C27.7309 10.2829 27.7914 10.2511 27.8497 10.2322C27.9051 10.2143 27.9339 10.2159 27.9205 10.2159V12.2159ZM28.9205 11.892L30.1751 13.4496C30.7785 12.9635 31.177 12.3345 31.4199 11.665L29.5398 10.983L27.6596 10.3009C27.6397 10.3558 27.6256 10.3759 27.6269 10.374C27.6275 10.3731 27.6311 10.368 27.6383 10.3602C27.6455 10.3524 27.6547 10.3435 27.6658 10.3345L28.9205 11.892ZM29.5398 10.983L31.4161 11.6752C31.6577 11.0206 31.7557 10.3298 31.7557 9.63636H29.7557H27.7557C27.7557 9.95812 27.7098 10.165 27.6634 10.2907L29.5398 10.983ZM29.7557 9.63636H31.7557C31.7557 8.95135 31.6608 8.26699 31.4234 7.61886L29.5455 8.30682L27.6675 8.99478C27.7104 9.1118 27.7557 9.3138 27.7557 9.63636H29.7557ZM29.5455 8.30682L31.4234 7.61885C31.1784 6.94999 30.776 6.32271 30.1675 5.841L28.9261 7.40909L27.6847 8.97718C27.6726 8.96755 27.6622 8.95776 27.6538 8.94879C27.6455 8.93989 27.6409 8.93348 27.6393 8.93116C27.6359 8.92636 27.6486 8.94314 27.6675 8.99478L29.5455 8.30682ZM28.9261 7.40909L30.1675 5.841C29.4917 5.30596 28.7009 5.08523 27.9205 5.08523V7.08523V9.08523C27.9377 9.08523 27.9114 9.08738 27.8571 9.06991C27.7998 9.05145 27.7384 9.01968 27.6847 8.97718L28.9261 7.40909ZM27.9205 7.08523V5.08523C27.1555 5.08523 26.3781 5.29528 25.7064 5.80838L26.9205 7.39773L28.1345 8.98707C28.082 9.0272 28.0238 9.05598 27.9715 9.07231C27.9222 9.08774 27.9003 9.08523 27.9205 9.08523V7.08523ZM26.9205 7.39773L25.6957 5.81663C25.0798 6.29367 24.6771 6.92099 24.4292 7.57981L26.3011 8.28409L28.173 8.98837C28.1939 8.9328 28.2075 8.91516 28.2034 8.92108C28.2013 8.92409 28.1954 8.93199 28.1851 8.94292C28.1747 8.95393 28.1614 8.96633 28.1453 8.97883L26.9205 7.39773ZM26.3011 8.28409L24.4292 7.57981C24.1812 8.23907 24.0852 8.93889 24.0852 9.63636H26.0852H28.0852C28.0852 9.29596 28.1332 9.09426 28.173 8.98837L26.3011 8.28409ZM43.858 11.4205L42.0984 10.4696L42.0953 10.4754L43.858 11.4205ZM41.9034 13.4602L42.8896 15.2002L42.8922 15.1987L41.9034 13.4602ZM36.3466 13.4545L37.3389 11.7181L36.3466 13.4545ZM34.3977 11.4148L32.6351 12.3598L32.6351 12.3598L34.3977 11.4148ZM34.3977 4.94318L36.1604 5.88825L36.1604 5.88825L34.3977 4.94318ZM36.3466 2.90909L37.3328 4.64903L37.3389 4.64558L36.3466 2.90909ZM41.9034 2.90909L40.9111 4.6456L40.9206 4.65096L41.9034 2.90909ZM43.858 4.94318L42.0953 5.88825L42.0985 5.89406L43.858 4.94318ZM41.7159 6.10227L39.8782 6.89161L39.8827 6.90197L41.7159 6.10227ZM40.6875 4.81818L39.588 6.48884L39.588 6.48884L40.6875 4.81818ZM37.5739 4.81818L38.6734 6.48884L38.6734 6.48884L37.5739 4.81818ZM36.5398 6.10227L34.7066 5.30256L34.7021 5.31295L36.5398 6.10227ZM36.5398 10.2614L34.7021 11.0507L34.7066 11.0611L36.5398 10.2614ZM37.5739 11.5455L38.6734 9.87479L38.6734 9.87479L37.5739 11.5455ZM40.6875 11.5455L39.588 9.87479L39.588 9.87479L40.6875 11.5455ZM41.7159 10.2614L39.8827 9.46165L39.8783 9.47204L41.7159 10.2614ZM44.5795 8.18182H42.5795C42.5795 9.20156 42.3865 9.93659 42.0985 10.4696L43.858 11.4205L45.6175 12.3713C46.2915 11.124 46.5795 9.69995 46.5795 8.18182H44.5795ZM43.858 11.4205L42.0953 10.4754C41.7843 11.0554 41.3918 11.4503 40.9146 11.7218L41.9034 13.4602L42.8922 15.1987C44.0665 14.5308 44.977 13.5658 45.6206 12.3655L43.858 11.4205ZM41.9034 13.4602L40.9172 11.7203C40.4216 12.0012 39.8423 12.1591 39.1307 12.1591V14.1591V16.1591C40.4721 16.1591 41.7413 15.8511 42.8896 15.2002L41.9034 13.4602ZM39.1307 14.1591V12.1591C38.4116 12.1591 37.8312 11.9994 37.3389 11.7181L36.3466 13.4545L35.3543 15.191C36.5059 15.8491 37.7816 16.1591 39.1307 16.1591V14.1591ZM36.3466 13.4545L37.3389 11.7181C36.8649 11.4472 36.4726 11.0521 36.1604 10.4697L34.3977 11.4148L32.6351 12.3598C33.2774 13.5578 34.1843 14.5225 35.3543 15.191L36.3466 13.4545ZM34.3977 11.4148L36.1604 10.4697C35.8734 9.93458 35.6818 9.19894 35.6818 8.18182H33.6818H31.6818C31.6818 9.695 31.9675 11.1147 32.6351 12.3598L34.3977 11.4148ZM33.6818 8.18182H35.6818C35.6818 7.15977 35.8739 6.42257 36.1604 5.88825L34.3977 4.94318L32.6351 3.99811C31.967 5.24409 31.6818 6.66598 31.6818 8.18182H33.6818ZM34.3977 4.94318L36.1604 5.88825C36.472 5.30708 36.8624 4.91565 37.3328 4.64902L36.3466 2.90909L35.3604 1.16916C34.1868 1.83435 33.278 2.79898 32.6351 3.99812L34.3977 4.94318ZM36.3466 2.90909L37.3389 4.64558C37.8312 4.36425 38.4116 4.20455 39.1307 4.20455V2.20455V0.204545C37.7816 0.204545 36.5059 0.514541 35.3543 1.17261L36.3466 2.90909ZM39.1307 2.20455V4.20455C39.8394 4.20455 40.4166 4.36297 40.9111 4.64558L41.9034 2.90909L42.8957 1.17261C41.7463 0.515819 40.475 0.204545 39.1307 0.204545V2.20455ZM41.9034 2.90909L40.9206 4.65096C41.3943 4.91824 41.785 5.30944 42.0953 5.88825L43.858 4.94318L45.6206 3.99812C44.9764 2.79662 44.064 1.83176 42.8862 1.16722L41.9034 2.90909ZM43.858 4.94318L42.0985 5.89406C42.3865 6.42704 42.5795 7.16207 42.5795 8.18182H44.5795H46.5795C46.5795 6.66369 46.2915 5.23962 45.6175 3.9923L43.858 4.94318ZM42.0852 8.18182H44.0852C44.0852 7.17196 43.9356 6.18854 43.5491 5.30257L41.7159 6.10227L39.8827 6.90197C39.9887 7.14479 40.0852 7.54774 40.0852 8.18182H42.0852ZM41.7159 6.10227L43.5536 5.31295C43.1816 4.44703 42.6063 3.68674 41.787 3.14752L40.6875 4.81818L39.588 6.48884C39.655 6.53296 39.7653 6.62873 39.8783 6.8916L41.7159 6.10227ZM40.6875 4.81818L41.787 3.14752C40.9788 2.61563 40.0673 2.38068 39.1307 2.38068V4.38068V6.38068C39.3835 6.38068 39.5098 6.4374 39.588 6.48884L40.6875 4.81818ZM39.1307 4.38068V2.38068C38.1941 2.38068 37.2826 2.61563 36.4744 3.14752L37.5739 4.81818L38.6734 6.48884C38.7515 6.4374 38.8779 6.38068 39.1307 6.38068V4.38068ZM37.5739 4.81818L36.4744 3.14752C35.658 3.68478 35.0824 4.44126 34.7066 5.30257L36.5398 6.10227L38.3729 6.90197C38.4896 6.63449 38.6033 6.53492 38.6734 6.48884L37.5739 4.81818ZM36.5398 6.10227L34.7021 5.31295C34.3229 6.19571 34.1761 7.17525 34.1761 8.18182H36.1761H38.1761C38.1761 7.54445 38.2717 7.13762 38.3774 6.8916L36.5398 6.10227ZM36.1761 8.18182H34.1761C34.1761 9.18839 34.3229 10.1679 34.7021 11.0507L36.5398 10.2614L38.3774 9.47204C38.2717 9.22601 38.1761 8.81919 38.1761 8.18182H36.1761ZM36.5398 10.2614L34.7066 11.0611C35.0823 11.9224 35.658 12.6789 36.4744 13.2161L37.5739 11.5455L38.6734 9.87479C38.6033 9.82872 38.4896 9.72914 38.3729 9.46166L36.5398 10.2614ZM37.5739 11.5455L36.4744 13.2161C37.2826 13.748 38.1941 13.983 39.1307 13.983V11.983V9.98295C38.8779 9.98295 38.7515 9.92623 38.6734 9.87479L37.5739 11.5455ZM39.1307 11.983V13.983C40.0673 13.983 40.9788 13.748 41.787 13.2161L40.6875 11.5455L39.588 9.87479C39.5098 9.92623 39.3835 9.98295 39.1307 9.98295V11.983ZM40.6875 11.5455L41.787 13.2161C42.6063 12.6769 43.1816 11.9166 43.5536 11.0507L41.7159 10.2614L39.8783 9.47204C39.7653 9.73491 39.655 9.83068 39.588 9.87479L40.6875 11.5455ZM41.7159 10.2614L43.5491 11.0611C43.9356 10.1751 44.0852 9.19168 44.0852 8.18182H42.0852H40.0852C40.0852 8.8159 39.9887 9.21884 39.8827 9.46166L41.7159 10.2614ZM48.777 8.95455L46.7771 8.93434L46.777 8.94444V8.95455H48.777ZM48.777 14V16H50.777V14H48.777ZM46.3565 14H44.3565V16H46.3565V14ZM46.3565 5.27273V3.27273H44.3565V5.27273H46.3565ZM48.6634 5.27273H50.6634V3.27273H48.6634V5.27273ZM48.6634 6.8125H46.6634V8.8125H48.6634V6.8125ZM48.7656 6.8125V8.8125H50.1444L50.6348 7.52391L48.7656 6.8125ZM49.7372 5.60795L50.8272 7.28487L50.837 7.27845L49.7372 5.60795ZM52.9759 5.55682L53.9899 3.83295L52.9759 5.55682ZM54.027 6.69318L52.2436 7.59857L52.2465 7.60413L54.027 6.69318ZM54.402 14V16H56.402V14H54.402ZM51.9815 14H49.9815V16H51.9815V14ZM51.9815 8.875L49.9816 8.86082L49.9815 8.86791V8.875H51.9815ZM51.5724 7.625L50.095 8.97313L50.1035 8.98233L51.5724 7.625ZM49.5668 7.38068L48.5887 5.63608L48.5774 5.64255L49.5668 7.38068ZM48.9872 7.99432L47.2136 7.07003L47.2086 7.07962L48.9872 7.99432ZM48.777 8.95455H46.777V14H48.777H50.777V8.95455H48.777ZM48.777 14V12H46.3565V14V16H48.777V14ZM46.3565 14H48.3565V5.27273H46.3565H44.3565V14H46.3565ZM46.3565 5.27273V7.27273H48.6634V5.27273V3.27273H46.3565V5.27273ZM48.6634 5.27273H46.6634V6.8125H48.6634H50.6634V5.27273H48.6634ZM48.6634 6.8125V8.8125H48.7656V6.8125V4.8125H48.6634V6.8125ZM48.7656 6.8125L50.6348 7.52391C50.6775 7.41186 50.7288 7.34877 50.8272 7.28484L49.7372 5.60795L48.6472 3.93107C47.8365 4.45805 47.2401 5.19798 46.8964 6.10109L48.7656 6.8125ZM49.7372 5.60795L50.837 7.27845C50.9071 7.23225 51.0582 7.15909 51.3906 7.15909V5.15909V3.15909C50.4276 3.15909 49.4764 3.38517 48.6375 3.93746L49.7372 5.60795ZM51.3906 5.15909V7.15909C51.6975 7.15909 51.8644 7.22338 51.9618 7.28069L52.9759 5.55682L53.9899 3.83295C53.1858 3.35996 52.2959 3.15909 51.3906 3.15909V5.15909ZM52.9759 5.55682L51.9618 7.28069C52.0644 7.34103 52.1565 7.42684 52.2437 7.59857L54.027 6.69318L55.8103 5.7878C55.3975 4.97467 54.7888 4.30291 53.9899 3.83295L52.9759 5.55682ZM54.027 6.69318L52.2465 7.60413C52.3222 7.75212 52.402 8.00868 52.402 8.44318H54.402H56.402C56.402 7.52162 56.2318 6.61151 55.8075 5.78223L54.027 6.69318ZM54.402 8.44318H52.402V14H54.402H56.402V8.44318H54.402ZM54.402 14V12H51.9815V14V16H54.402V14ZM51.9815 14H53.9815V8.875H51.9815H49.9815V14H51.9815ZM51.9815 8.875L53.9815 8.88918C53.9877 8.00961 53.7591 7.04438 53.0413 6.26767L51.5724 7.625L50.1035 8.98233C50.0703 8.94638 50.0426 8.90812 50.021 8.87063C49.9996 8.83353 49.9875 8.80307 49.9813 8.78401C49.9695 8.74782 49.9823 8.76433 49.9816 8.86082L51.9815 8.875ZM51.5724 7.625L53.0498 6.2769C52.3251 5.48273 51.3658 5.17045 50.4304 5.17045V7.17045V9.17045C50.4651 9.17045 50.4238 9.17571 50.34 9.14232C50.2486 9.10594 50.1607 9.04501 50.0951 8.9731L51.5724 7.625ZM50.4304 7.17045V5.17045C49.8096 5.17045 49.1764 5.3067 48.5888 5.63612L49.5668 7.38068L50.5448 9.12524C50.506 9.147 50.4698 9.15978 50.4432 9.16627C50.4178 9.17245 50.4113 9.17045 50.4304 9.17045V7.17045ZM49.5668 7.38068L48.5774 5.64255C47.9731 5.9865 47.5184 6.48519 47.2136 7.07004L48.9872 7.99432L50.7608 8.9186C50.7522 8.93513 50.7308 8.97052 50.6912 9.01245C50.6509 9.05515 50.6039 9.09162 50.5562 9.11881L49.5668 7.38068ZM48.9872 7.99432L47.2086 7.07962C46.898 7.68373 46.7832 8.32628 46.7771 8.93434L48.777 8.95455L50.7769 8.97475C50.7783 8.83281 50.8037 8.83521 50.7658 8.90901L48.9872 7.99432ZM61.0142 2.36364V0.363636H59.0142V2.36364H61.0142ZM63.446 2.36364H65.446V0.363636H63.446V2.36364ZM62.9403 12.4318L61.2326 11.3908L61.2274 11.3994L62.9403 12.4318ZM61.5483 13.7102L60.6493 11.9237L60.6493 11.9237L61.5483 13.7102ZM57.5653 13.7898L56.7599 15.6204L56.7672 15.6236L56.7746 15.6268L57.5653 13.7898ZM56.2131 12.6534L54.5376 13.7456L54.5413 13.7513L56.2131 12.6534ZM55.7188 10.7273V8.72727H53.7285L53.7188 10.7175L55.7188 10.7273ZM58.1676 10.7273L60.167 10.6779L60.1188 8.72727H58.1676V10.7273ZM58.3551 11.517L56.5913 12.4598L56.601 12.4781L56.6111 12.4961L58.3551 11.517ZM58.8494 12.017L57.8674 13.7593L57.8861 13.7699L57.905 13.78L58.8494 12.017ZM60.3665 11.9943L61.4181 13.6955L61.4265 13.6903L60.3665 11.9943ZM60.8494 11.4148L62.6849 12.2092L62.6849 12.2092L60.8494 11.4148ZM61.0142 2.36364V4.36364H63.446V2.36364V0.363636H61.0142V2.36364ZM63.446 2.36364H61.446V10.4773H63.446H65.446V2.36364H63.446ZM63.446 10.4773H61.446C61.446 10.919 61.35 11.1982 61.2326 11.3908L62.9403 12.4318L64.6481 13.4728C65.2049 12.5594 65.446 11.5355 65.446 10.4773H63.446ZM62.9403 12.4318L61.2274 11.3994C61.0951 11.6189 60.918 11.7884 60.6493 11.9237L61.5483 13.7102L62.4473 15.4968C63.368 15.0335 64.1189 14.3508 64.6533 13.4643L62.9403 12.4318ZM61.5483 13.7102L60.6493 11.9237C60.3803 12.059 60.0071 12.1591 59.4744 12.1591V14.1591V16.1591C60.5176 16.1591 61.5269 15.9599 62.4473 15.4968L61.5483 13.7102ZM59.4744 14.1591V12.1591C59.0115 12.1591 58.6488 12.0787 58.3561 11.9527L57.5653 13.7898L56.7746 15.6268C57.6258 15.9932 58.5358 16.1591 59.4744 16.1591V14.1591ZM57.5653 13.7898L58.3708 11.9591C58.1477 11.861 58.0012 11.7328 57.8848 11.5556L56.2131 12.6534L54.5413 13.7513C55.0916 14.5891 55.8466 15.2186 56.7599 15.6204L57.5653 13.7898ZM56.2131 12.6534L57.8885 11.5613C57.8191 11.4548 57.7163 11.2223 57.7187 10.7371L55.7188 10.7273L53.7188 10.7175C53.7136 11.7777 53.9403 12.8293 54.5376 13.7456L56.2131 12.6534ZM55.7188 10.7273V12.7273H58.1676V10.7273V8.72727H55.7188V10.7273ZM58.1676 10.7273L56.1682 10.7766C56.1817 11.3244 56.2964 11.9082 56.5913 12.4598L58.3551 11.517L60.119 10.5743C60.1789 10.6865 60.1686 10.7437 60.167 10.6779L58.1676 10.7273ZM58.3551 11.517L56.6111 12.4961C56.905 13.0196 57.3284 13.4555 57.8674 13.7593L58.8494 12.017L59.8315 10.2747C59.8856 10.3053 59.9412 10.3466 59.9919 10.3979C60.0423 10.4488 60.077 10.4986 60.0991 10.538L58.3551 11.517ZM58.8494 12.017L57.905 13.78C58.4595 14.0771 59.0464 14.1875 59.5994 14.1875V12.1875V10.1875C59.5767 10.1875 59.6636 10.1843 59.7939 10.2541L58.8494 12.017ZM59.5994 12.1875V14.1875C60.186 14.1875 60.8265 14.0612 61.4181 13.6955L60.3665 11.9943L59.3148 10.2931C59.4897 10.185 59.6189 10.1875 59.5994 10.1875V12.1875ZM60.3665 11.9943L61.4265 13.6903C62.0185 13.3203 62.4317 12.7942 62.6849 12.2092L60.8494 11.4148L59.014 10.6203C59.0275 10.5891 59.0565 10.5337 59.1099 10.4696C59.1644 10.4042 59.2317 10.345 59.3065 10.2983L60.3665 11.9943ZM60.8494 11.4148L62.6849 12.2092C62.9336 11.6345 63.0142 11.0333 63.0142 10.4773H61.0142H59.0142C59.0142 10.5658 59.0075 10.6192 59.0032 10.6438C58.999 10.6681 58.9984 10.6563 59.014 10.6203L60.8494 11.4148ZM61.0142 10.4773H63.0142V2.36364H61.0142H59.0142V10.4773H61.0142ZM65.4801 14H63.4801V16H65.4801V14ZM65.4801 2.36364V0.363636H63.4801V2.36364H65.4801ZM67.9403 2.36364H69.9403V0.363636H67.9403V2.36364ZM67.9403 7.49432H65.9403V9.49432H67.9403V7.49432ZM68.0938 7.49432V9.49432H69.043L69.6432 8.75892L68.0938 7.49432ZM72.2812 2.36364V0.363636H71.332L70.7318 1.09903L72.2812 2.36364ZM75.2301 2.36364L76.77 3.63987L79.4853 0.363636H75.2301V2.36364ZM70.9119 7.57386L69.3721 6.29763L68.4127 7.45516L69.258 8.6984L70.9119 7.57386ZM75.2812 14V16H79.0596L76.9352 12.8755L75.2812 14ZM72.3381 14L70.6737 15.1089L71.2673 16H72.3381V14ZM69.1506 9.21591L70.815 8.10696L69.3163 5.85764L67.6034 7.94846L69.1506 9.21591ZM67.9403 10.6932L66.3932 9.42573L65.9403 9.97855V10.6932H67.9403ZM67.9403 14V16H69.9403V14H67.9403ZM65.4801 14H67.4801V2.36364H65.4801H63.4801V14H65.4801ZM65.4801 2.36364V4.36364H67.9403V2.36364V0.363636H65.4801V2.36364ZM67.9403 2.36364H65.9403V7.49432H67.9403H69.9403V2.36364H67.9403ZM67.9403 7.49432V9.49432H68.0938V7.49432V5.49432H67.9403V7.49432ZM68.0938 7.49432L69.6432 8.75892L73.8307 3.62824L72.2812 2.36364L70.7318 1.09903L66.5443 6.22971L68.0938 7.49432ZM72.2812 2.36364V4.36364H75.2301V2.36364V0.363636H72.2812V2.36364ZM75.2301 2.36364L73.6902 1.0874L69.3721 6.29763L70.9119 7.57386L72.4518 8.8501L76.77 3.63987L75.2301 2.36364ZM70.9119 7.57386L69.258 8.6984L73.6273 15.1245L75.2812 14L76.9352 12.8755L72.5658 6.44932L70.9119 7.57386ZM75.2812 14V12H72.3381V14V16H75.2812V14ZM72.3381 14L74.0025 12.8911L70.815 8.10696L69.1506 9.21591L67.4862 10.3249L70.6737 15.1089L72.3381 14ZM69.1506 9.21591L67.6034 7.94846L66.3932 9.42573L67.9403 10.6932L69.4875 11.9606L70.6977 10.4834L69.1506 9.21591ZM67.9403 10.6932H65.9403V14H67.9403H69.9403V10.6932H67.9403ZM67.9403 14V12H65.4801V14V16H67.9403V14ZM76.0682 4.39205H74.0682V6.39205H76.0682V4.39205ZM76.0682 2.36364V0.363636H74.0682V2.36364H76.0682ZM85.625 2.36364H87.625V0.363636H85.625V2.36364ZM85.625 4.39205V6.39205H87.625V4.39205H85.625ZM82.0625 4.39205V2.39205H80.0625V4.39205H82.0625ZM82.0625 14V16H84.0625V14H82.0625ZM79.6307 14H77.6307V16H79.6307V14ZM79.6307 4.39205H81.6307V2.39205H79.6307V4.39205ZM76.0682 4.39205H78.0682V2.36364H76.0682H74.0682V4.39205H76.0682ZM76.0682 2.36364V4.36364H85.625V2.36364V0.363636H76.0682V2.36364ZM85.625 2.36364H83.625V4.39205H85.625H87.625V2.36364H85.625ZM85.625 4.39205V2.39205H82.0625V4.39205V6.39205H85.625V4.39205ZM82.0625 4.39205H80.0625V14H82.0625H84.0625V4.39205H82.0625ZM82.0625 14V12H79.6307V14V16H82.0625V14ZM79.6307 14H81.6307V4.39205H79.6307H77.6307V14H79.6307ZM79.6307 4.39205V2.39205H76.0682V4.39205V6.39205H79.6307V4.39205Z" fill="#2A4C70" mask="url(#path-1-outside-1_136_96)"/>
</svg>
